<?xml version="1.0" encoding="UTF-8"?>
<svg width="50px" height="50px" viewBox="0 0 50 50" version="1.1" xmlns="http://www.w3.org/2000/svg" xmlns:xlink="http://www.w3.org/1999/xlink">
    <title>icons8-instagram</title>
    <g id="Page-1" stroke="none" stroke-width="1" fill="none" fill-rule="evenodd">
        <g id="Footer" transform="translate(-1483.000000, -80.000000)" fill="#000000" fill-rule="nonzero">
            <g id="icons8-instagram" transform="translate(1483.000000, 80.000000)">
                <path d="M14.5132212,0 C6.52043269,0 0,6.52043269 0,14.5132212 L0,35.4867788 C0,43.4795673 6.52043269,50 14.5132212,50 L35.4867788,50 C43.4795673,50 50,43.4795673 50,35.4867788 L50,14.5132212 C50,6.52043269 43.4795673,0 35.4867788,0 L14.5132212,0 Z M14.5132212,3.84615385 L35.4867788,3.84615385 C41.3987385,3.84615385 46.1538462,8.59375 46.1538462,14.5132212 L46.1538462,35.4867788 C46.1538462,41.3987385 41.40625,46.1538462 35.4867788,46.1538462 L14.5132212,46.1538462 C8.60126154,46.1538462 3.84615385,41.40625 3.84615385,35.4867788 L3.84615385,14.5132212 C3.84615385,8.60126154 8.59375,3.84615385 14.5132212,3.84615385 Z M39.4230769,7.69230769 C37.8305288,7.69230769 36.5384615,8.984375 36.5384615,10.5769231 C36.5384615,12.1694712 37.8305288,13.4615385 39.4230769,13.4615385 C41.015625,13.4615385 42.3076923,12.1694712 42.3076923,10.5769231 C42.3076923,8.984375 41.015625,7.69230769 39.4230769,7.69230769 Z M25,11.5384615 C17.5856365,11.5384615 11.5384615,17.5856365 11.5384615,25 C11.5384615,32.4143635 17.5856365,38.4615385 25,38.4615385 C32.4143635,38.4615385 38.4615385,32.4143635 38.4615385,25 C38.4615385,17.5856365 32.4143635,11.5384615 25,11.5384615 Z M25,15.3846154 C30.3335346,15.3846154 34.6153846,19.6664673 34.6153846,25 C34.6153846,30.3335346 30.3335346,34.6153846 25,34.6153846 C19.6664673,34.6153846 15.3846154,30.3335346 15.3846154,25 C15.3846154,19.6664673 19.6664673,15.3846154 25,15.3846154 Z" id="Shape"></path>
            </g>
        </g>
    </g>
</svg>