<?xml version="1.0" encoding="UTF-8"?>
<svg width="50px" height="50px" viewBox="0 0 50 50" version="1.1" xmlns="http://www.w3.org/2000/svg" xmlns:xlink="http://www.w3.org/1999/xlink">
    <title>icons8-телеграмма-app</title>
    <g id="Page-1" stroke="none" stroke-width="1" fill="none" fill-rule="evenodd">
        <g id="Footer" transform="translate(-1343.000000, -82.000000)" fill="#000000" fill-rule="nonzero">
            <g id="icons8-телеграмма-app" transform="translate(1343.000000, 82.000000)">
                <path d="M44.941405,0.336371667 L44.02832,0.748697778 C44.02832,0.748697778 11.593876,15.4834678 1.533203,20.1877167 L0.00488275,20.9038639 L0.00488275,27.1647139 L12.368164,32.6551639 L16.6992188,47.2113722 L20.6298825,47.2384972 L27.387695,40.8908417 L35.8886725,49.98915 L42.021485,49.98915 L49.91211,2.43055556 L44.941405,0.336371667 Z M44.11621,6.71658 L37.86621,44.3901917 L27.612305,33.4147139 L20.5615225,40.0282111 L22.5,31.5972222 L38.203125,13.8888889 L37.7050775,13.3300781 C37.7050775,13.3300781 21.766755,23.5388833 15.0048828,27.8428833 L6.3427735,23.9963111 C17.6926038,18.7377106 41.7448575,7.79410028 44.11621,6.71658 Z" id="Shape"></path>
            </g>
        </g>
    </g>
</svg>