<?xml version="1.0" encoding="UTF-8"?>
<svg width="51px" height="50px" viewBox="0 0 51 50" version="1.1" xmlns="http://www.w3.org/2000/svg" xmlns:xlink="http://www.w3.org/1999/xlink">
    <title>icons8-whatsapp</title>
    <g id="Page-1" stroke="none" stroke-width="1" fill="none" fill-rule="evenodd">
        <g id="Footer" transform="translate(-1413.000000, -82.000000)" fill="#000000" fill-rule="nonzero">
            <g id="icons8-whatsapp" transform="translate(1413.000000, 82.000000)">
                <path d="M25.4716981,0 C11.9398604,0 0.943396226,10.9964642 0.943396226,24.5283019 C0.943396226,29.4221698 2.52063774,33.9033019 4.98231321,37.7358491 L0.766509434,49.5135623 L13.8856151,45.8136792 C17.3643887,47.7152113 21.2264151,49.0566038 25.4716981,49.0566038 C39.0035396,49.0566038 50,38.0601434 50,24.5283019 C50,10.9964642 39.0035396,0 25.4716981,0 Z M25.4716981,3.77358491 C36.9546,3.77358491 46.2264151,13.0454 46.2264151,24.5283019 C46.2264151,36.0112038 36.9546,45.2830189 25.4716981,45.2830189 C21.535966,45.2830189 17.8950491,44.1774755 14.740566,42.2759434 L14.0477585,41.8484679 L6.78066038,43.8826642 L9.13915094,37.3378528 L8.56426792,36.5418642 C6.14681509,33.1367925 4.71698113,29.009434 4.71698113,24.5283019 C4.71698113,13.0454 13.9887962,3.77358491 25.4716981,3.77358491 Z M16.2735849,11.3207547 C15.8461094,11.3207547 15.1385623,11.4976415 14.5342,12.2051887 C13.9445774,12.8979962 12.2641509,14.5931623 12.2641509,18.0424528 C12.2641509,21.4770038 14.5931623,24.8083736 14.9174528,25.2800717 C15.2417472,25.7517698 19.5017698,32.8125019 26.0170981,35.8490566 C27.5648604,36.5713434 28.7735849,36.9988226 29.7169811,37.3231132 C31.279483,37.8537736 32.6945774,37.7800717 33.8148604,37.6031849 C35.0678075,37.3968151 37.6621472,35.9080189 38.2075472,34.2718151 C38.7382075,32.6356151 38.7529472,31.2352604 38.5760604,30.9404491 C38.4286566,30.6456377 37.9864377,30.4687509 37.3378528,30.129717 C36.6892679,29.7759434 33.490566,28.0807774 32.9009434,27.8596717 C32.3113208,27.6090792 31.8691057,27.5058981 31.4268868,28.1987019 C30.9994113,28.9062491 29.7612038,30.4834906 29.3779472,30.9404491 C28.9946943,31.4121472 28.6261811,31.4711094 27.9775962,31.1173358 C27.3142679,30.7635623 25.2211094,30.0265321 22.7446943,27.6385623 C20.8136792,25.7812491 19.5017698,23.4964642 19.1332566,22.788917 C18.75,22.0813698 19.089034,21.7128528 19.4133245,21.3738226 C19.7081358,21.0495283 20.0619094,20.5483509 20.3862038,20.1356151 C20.7104943,19.7376189 20.8136792,19.4280679 21.0347887,18.9711094 C21.2558981,18.4994113 21.1527132,18.0866755 20.990566,17.7476415 C20.8136792,17.3938679 19.5165094,13.9445774 18.9858491,12.5442226 C18.4551887,11.1880906 17.9097887,11.3649774 17.5117925,11.3502377 C17.1432792,11.3207547 16.7010604,11.3207547 16.2735849,11.3207547 Z" id="Shape"></path>
            </g>
        </g>
    </g>
</svg>